HIERARCHY
ROOT root
{
	OFFSET 0.000000 0.000000 0.000000
	CHANNELS 6 Xposition Yposition Zposition Zrotation Yrotation Xrotation
	JOINT lhip
	{
		OFFSET 0.058581 -0.082280 -0.017664
		CHANNELS 3 Zrotation Yrotation Xrotation
		JOINT lknee
		{
			OFFSET 0.043451 -0.386469 0.008037
			CHANNELS 3 Zrotation Yrotation Xrotation
			JOINT lankle
			{
				OFFSET -0.014790 -0.426874 -0.037428
				CHANNELS 3 Zrotation Yrotation Xrotation
				JOINT ltoe
				{
					OFFSET 0.041054 -0.060286 0.122042
					CHANNELS 3 Zrotation Yrotation Xrotation
					End Site
					{
						OFFSET 0.000000 0.000000 0.000000
					}
				}
			}
		}
	}
	JOINT rhip
	{
		OFFSET -0.060310 -0.090513 -0.013543
		CHANNELS 3 Zrotation Yrotation Xrotation
		JOINT rknee
		{
			OFFSET -0.043257 -0.383688 -0.004843
			CHANNELS 3 Zrotation Yrotation Xrotation
			JOINT rankle
			{
				OFFSET 0.019056 -0.420046 -0.034562
				CHANNELS 3 Zrotation Yrotation Xrotation
				JOINT rtoe
				{
					OFFSET -0.034840 -0.062106 0.130323
					CHANNELS 3 Zrotation Yrotation Xrotation
					End Site
					{
						OFFSET 0.000000 0.000000 0.000000
					}
				}
			}
		}
	}
	JOINT lowerback
	{
		OFFSET 0.004439 0.124404 -0.038385
		CHANNELS 3 Zrotation Yrotation Xrotation
		JOINT upperback
		{
			OFFSET 0.004488 0.137956 0.026820
			CHANNELS 3 Zrotation Yrotation Xrotation
			JOINT chest
			{
				OFFSET -0.002265 0.056032 0.002855
				CHANNELS 3 Zrotation Yrotation Xrotation
				JOINT lowerneck
				{
					OFFSET -0.013390 0.211636 -0.033468
					CHANNELS 3 Zrotation Yrotation Xrotation
					JOINT upperneck
					{
						OFFSET 0.010113 0.088937 0.050410
						CHANNELS 3 Zrotation Yrotation Xrotation
						End Site
						{
							OFFSET 0.000000 0.000000 0.000000
						}
					}
				}
				JOINT lclavicle
				{
					OFFSET 0.071702 0.114000 -0.018898
					CHANNELS 3 Zrotation Yrotation Xrotation
					JOINT lshoulder
					{
						OFFSET 0.122921 0.045205 -0.019046
						CHANNELS 3 Zrotation Yrotation Xrotation
						JOINT lelbow
						{
							OFFSET 0.255332 -0.015649 -0.022946
							CHANNELS 3 Zrotation Yrotation Xrotation
							JOINT lwrist
							{
								OFFSET 0.265709 0.012698 -0.007375
								CHANNELS 3 Zrotation Yrotation Xrotation
								End Site
								{
									OFFSET 0.000000 0.000000 0.000000
								}
							}
						}
					}
				}
				JOINT rclavicle
				{
					OFFSET -0.082954 0.112472 -0.023707
					CHANNELS 3 Zrotation Yrotation Xrotation
					JOINT rshoulder
					{
						OFFSET -0.113228 0.046853 -0.008472
						CHANNELS 3 Zrotation Yrotation Xrotation
						JOINT relbow
						{
							OFFSET -0.260127 -0.014369 -0.031269
							CHANNELS 3 Zrotation Yrotation Xrotation
							JOINT rwrist
							{
								OFFSET -0.269108 0.006794 -0.006027
								CHANNELS 3 Zrotation Yrotation Xrotation
								End Site
								{
									OFFSET 0.000000 0.000000 0.000000
								}
							}
						}
					}
				}
			}
		}
	}
}
MOTION
Frames: 11
Frame Time: 0.033333
-1.235759 0.304723 0.999652 100.759543 -0.304072 85.150206 -4.267610 3.425505 18.125160 -3.837415 -21.416211 3.889606 6.113790 6.894191 -14.780500 0.000000 -0.000000 0.000000 -5.290711 -2.657452 -28.587104 0.031801 -12.781971 13.430390 12.711678 -9.915234 -3.192369 0.000000 -0.000000 0.000000 -2.070054 -5.978016 17.331192 -0.072260 -2.952867 -4.450369 -0.189817 -5.649882 1.216893 1.330981 10.825549 -12.332419 -1.332906 1.295206 8.730959 -24.129058 -5.160314 0.827560 -49.900204 -19.144586 10.031950 7.888084 -35.137247 1.732463 -2.469997 -5.793340 -2.738132 32.425694 2.554601 -2.854937 53.951857 9.317727 11.175091 -21.913610 21.596039 -23.382399 6.245359 4.330767 -8.735465 
-1.208171 0.304122 0.997736 101.169803 -0.251998 85.550387 -3.715569 3.503254 19.033520 -4.026032 -22.104758 5.034434 5.478281 6.903711 -14.658458 0.000000 -0.000000 0.000000 -4.898714 -2.050586 -28.343044 0.200755 -13.005425 15.766741 11.746687 -10.217160 -4.144161 0.000000 -0.000000 0.000000 -1.904162 -6.587752 17.201959 0.100265 -3.223531 -4.120096 -0.294800 -5.751680 1.200578 1.406127 11.296850 -12.591966 -1.486322 1.650832 8.566061 -24.459213 -5.313156 0.871079 -49.570384 -18.733758 9.848464 7.907018 -33.556508 2.044431 -2.954385 -5.807971 -2.276910 32.722396 2.611157 -3.022961 53.650322 9.155808 11.059284 -21.463066 21.151568 -23.160515 6.657414 4.437882 -9.319376 
-1.177730 0.302722 0.996694 101.407768 -0.518359 86.448033 -3.694120 3.209489 19.180263 -4.240091 -22.169595 6.856279 4.889017 6.733441 -13.822746 0.000000 -0.000000 0.000000 -3.980845 -1.300402 -27.248890 0.174070 -11.295761 17.094225 10.426806 -9.323418 -4.838478 0.000000 -0.000000 0.000000 -2.025298 -6.434505 16.198890 0.279469 -3.535758 -3.778713 -0.331818 -6.118207 1.191708 1.189298 11.637738 -12.654198 -1.429205 2.004453 8.111311 -24.643943 -5.386746 1.078256 -49.925797 -18.184281 9.650678 8.463985 -30.834111 1.699045 -3.006984 -5.284869 -2.033606 32.724977 2.388989 -2.928805 53.921990 8.589559 11.081859 -21.255674 20.430996 -22.660303 6.591932 3.999853 -10.308298 
-1.145561 0.301142 0.998096 101.173160 -0.717711 87.544033 -4.182904 2.525883 18.312898 -4.323918 -21.823622 9.968596 4.023963 6.613502 -11.767891 0.000000 -0.000000 0.000000 -2.824314 -1.130155 -25.808170 -0.624973 -11.749615 15.116460 8.246007 -10.552287 -1.947501 0.000000 -0.000000 0.000000 -1.930318 -6.198117 15.363752 0.306644 -3.658530 -4.194202 -0.185835 -6.301522 1.187940 1.170086 11.055946 -11.907944 -1.265545 2.971630 8.635534 -25.186324 -4.631479 1.102901 -50.405037 -17.681018 9.170136 8.751753 -27.295708 1.769005 -3.806030 -4.904541 -1.576026 32.690865 1.691884 -2.721495 53.954453 8.270642 11.308414 -20.365183 18.955392 -22.067165 6.942615 3.975802 -11.001569 
-1.112232 0.299916 1.002812 100.292067 -0.359843 88.394359 -4.286904 1.843762 17.136361 -4.789232 -20.758385 14.116482 2.867500 6.512651 -7.684912 0.000000 -0.000000 0.000000 -2.097374 -0.981083 -24.385385 0.271929 -10.943425 13.658954 7.732471 -10.163697 2.557092 0.000000 -0.000000 0.000000 -1.154561 -6.065129 14.432899 0.488609 -3.512298 -3.865220 -0.238287 -6.087500 0.891598 0.691627 10.068762 -11.261289 -1.418108 3.502943 8.318461 -26.137602 -3.740750 1.095204 -50.706324 -16.974294 8.619779 9.591131 -23.881589 0.475360 -4.300229 -4.031617 -1.577777 32.625230 0.997255 -2.450114 53.915480 8.132901 11.376586 -19.212748 17.393965 -21.610109 7.115511 3.569864 -11.543539 
-1.076378 0.297464 1.009377 98.792400 0.485821 88.625326 -3.568653 1.650201 16.098540 -5.675889 -19.235383 18.671637 0.439144 6.051686 -2.512114 0.000000 -0.000000 0.000000 -1.005612 0.277343 -22.517843 0.939479 -10.689816 14.068029 6.046883 -9.104445 2.286388 0.000000 -0.000000 0.000000 -0.287060 -6.182097 14.308021 0.714771 -2.948105 -3.880705 -0.264886 -5.320624 0.565932 0.646085 9.714023 -10.642039 -1.742767 3.823737 8.261516 -26.763391 -2.578199 0.993188 -51.128368 -15.801866 8.195907 10.271033 -20.975474 -0.740802 -4.954637 -3.534635 -2.038743 32.674569 0.667016 -1.988249 53.992750 7.713416 11.270904 -18.359937 15.290813 -21.155154 7.330114 3.023116 -12.036347 
-1.039695 0.294343 1.015344 97.268030 1.066381 88.662349 -2.857495 1.418203 14.216781 -6.909184 -17.104678 24.302804 -2.359006 4.794046 5.100149 0.000000 -0.000000 0.000000 0.413952 0.854819 -20.255896 1.673277 -9.057876 14.056585 3.792686 -8.261791 1.483493 0.000000 -0.000000 0.000000 -0.060931 -5.515051 13.550907 1.180228 -2.538594 -3.010546 -0.068891 -4.959347 0.467990 0.264639 9.588584 -10.075097 -1.443621 4.077210 8.218831 -27.071933 -1.374910 1.107066 -51.379421 -14.637145 7.916078 10.626533 -19.318253 -1.276338 -5.474444 -3.310580 -3.388542 32.861909 0.301662 -1.352371 53.817031 7.855628 11.135682 -17.286899 13.336401 -20.190733 7.423465 2.470663 -12.495512 
-1.004464 0.290679 1.019480 95.942069 1.182567 88.750162 -2.277992 0.628360 11.025385 -9.007949 -14.715076 31.326602 -5.712831 3.531094 11.641667 0.000000 -0.000000 0.000000 1.707072 0.623704 -17.973868 1.830644 -8.054801 13.826477 1.467456 -7.145906 0.690237 0.000000 -0.000000 0.000000 -0.480673 -4.364608 13.282407 1.547326 -2.463445 -2.832582 0.207962 -4.489054 0.285644 0.274040 9.587945 -8.965368 -0.806520 4.014771 8.182474 -26.827699 -0.049551 1.329643 -51.390009 -13.387942 7.832054 10.299589 -19.103253 -0.472597 -6.095161 -2.837991 -4.082044 33.184116 -0.378903 -0.822738 54.102352 7.447774 10.835899 -16.854425 11.789266 -19.197971 7.475406 1.960989 -12.734673 
-0.971358 0.288982 1.022040 95.565786 1.032002 88.598431 -2.048117 -0.225521 7.291185 -10.915712 -12.898047 39.094185 -5.919389 2.778680 14.782146 0.000000 -0.000000 0.000000 2.194315 0.464365 -15.696336 2.135783 -6.816647 13.862984 -0.361134 -7.745034 -0.145198 0.000000 -0.000000 0.000000 -0.890988 -3.432917 13.393886 1.899879 -2.410951 -2.651335 0.410005 -4.240826 0.594624 0.578763 8.400633 -9.155894 -1.984098 3.745186 8.204488 -27.413335 1.021581 1.457148 -50.081066 -12.426114 7.641490 9.592002 -20.496485 0.794192 -6.956598 -2.723676 -4.442166 33.645314 -0.971408 -0.690015 54.038921 6.736066 10.763430 -16.859079 11.096629 -18.905374 7.669895 1.267257 -12.222452 
-0.939371 0.287438 1.023055 95.088079 0.769459 87.940808 -1.728106 -1.070654 3.710925 -12.337864 -9.964922 46.398642 -3.626017 2.726363 12.171174 0.000000 -0.000000 0.000000 2.498789 0.396946 -13.251945 2.245467 -6.179672 14.814071 -1.291024 -7.825490 -2.536655 0.000000 -0.000000 0.000000 -1.423292 -2.434152 14.273222 1.961778 -2.238481 -2.831600 0.466287 -3.737037 0.891826 0.373947 8.564218 -8.470230 -1.096798 3.907402 8.117259 -27.225754 1.723279 1.798396 -49.443062 -11.535561 7.130281 9.480388 -22.251743 1.513919 -7.079254 -2.778957 -5.341517 33.956229 -1.330360 -0.197544 54.238283 6.013394 10.340982 -16.621129 10.082877 -17.764184 7.680711 0.671661 -11.865026 
-0.908789 0.285633 1.023433 94.722487 0.547432 87.696484 -0.962578 -1.817457 -0.678198 -11.486873 -5.764130 52.078733 -0.209129 4.433919 6.997596 0.000000 -0.000000 0.000000 2.898387 0.149879 -10.862536 2.222520 -5.015003 14.873116 -1.832400 -8.557262 -4.267207 0.000000 -0.000000 0.000000 -1.882180 -1.141467 14.553883 2.069063 -1.949724 -2.919642 0.625317 -3.311336 1.648966 0.593945 8.023695 -8.735275 -0.916410 3.730535 8.494349 -27.492110 2.306950 1.945136 -48.736470 -11.392937 6.466057 9.630979 -23.436048 1.418631 -7.148663 -2.675446 -6.510866 34.263579 -1.550459 -0.133842 54.245674 5.572544 10.155995 -16.212702 8.267297 -17.251410 7.512377 0.093615 -11.689962 
